<svg width="600" height="263" viewBox="0 0 600 263" fill="none" xmlns="http://www.w3.org/2000/svg">
<rect width="600" height="262.5" fill="white"/>
<path fill-rule="evenodd" clip-rule="evenodd" d="M224.178 0C214.299 0 206 7.76224 206 17.5638V244.616C206 254.383 214.284 262.18 224.178 262.18H388.787C398.666 262.18 406.964 254.418 406.964 244.616V238.061C406.964 237.934 407 237.814 407 237.687V188.15C407.002 187.951 406.99 187.753 406.964 187.557V56.8761C406.964 56.2672 406.838 55.6649 406.596 55.1065C406.353 54.5482 405.998 54.0456 405.553 53.63L350.723 1.24901C349.894 0.448168 348.786 0.000419283 347.633 0H224.178ZM224.178 8.94775H345.84L346.2 9.28646V43.6944C346.2 47.5402 346.327 51.3578 348.098 54.9284C349.87 58.4991 354.096 61.1735 358.902 61.1735H398.038L397.713 192.793H215.286L214.941 17.5638C214.941 12.8218 218.871 8.94775 224.178 8.94775ZM354.943 17.6344L391.383 52.4375H358.923C356.468 52.4375 356.531 52.2117 355.952 51.0261C355.374 49.8406 354.964 47.1027 354.964 43.6802L354.943 17.6344ZM215.286 192.793H397.713V237.687C397.713 246.472 391.75 252.859 384.934 252.859H228.066C221.249 252.859 215.286 246.472 215.286 237.687V192.793Z" fill="#01217B"/>
<path d="M369.211 120.851H243.788C241.449 120.851 239.554 122.747 239.554 125.085V126.856C239.554 129.195 241.449 131.09 243.788 131.09H369.211C371.55 131.09 373.445 129.195 373.445 126.856V125.085C373.445 122.747 371.55 120.851 369.211 120.851Z" fill="#01217B"/>
<path d="M369.211 147.024H243.788C241.449 147.024 239.554 148.92 239.554 151.258V153.029C239.554 155.367 241.449 157.263 243.788 157.263H369.211C371.55 157.263 373.445 155.367 373.445 153.029V151.258C373.445 148.92 371.55 147.024 369.211 147.024Z" fill="#01217B"/>
<path d="M369.211 173.204H243.788C241.449 173.204 239.554 175.099 239.554 177.438V179.209C239.554 181.547 241.449 183.443 243.788 183.443H369.211C371.55 183.443 373.445 181.547 373.445 179.209V177.438C373.445 175.099 371.55 173.204 369.211 173.204Z" fill="#01217B"/>
<path d="M299.676 94.6709H243.788C241.449 94.6709 239.554 96.5665 239.554 98.9048V100.676C239.554 103.014 241.449 104.91 243.788 104.91H299.676C302.014 104.91 303.91 103.014 303.91 100.676V98.9048C303.91 96.5665 302.014 94.6709 299.676 94.6709Z" fill="#01217B"/>
</svg>
